<svg width="200" height="50" viewBox="0 0 200 50" fill="none" xmlns="http://www.w3.org/2000/svg">
<path d="M39.6257 19.8435L38.6607 5.66957C38.0575 6.09177 37.0322 6.45366 35.5847 6.45366C33.4738 6.45366 29.7343 4.82516 24.4268 4.82516C11.2785 4.82516 0 12.7264 0 26.4781C0 38.8425 9.52946 48.9754 23.3412 48.9754C36.0672 48.9754 41.6763 42.2805 41.6763 35.7062C41.6763 31.5445 38.4797 29.4938 35.4038 29.4938C35.4038 34.4999 32.2675 39.1441 24.668 39.1441C16.4655 39.1441 12.0626 33.4142 12.0626 26.5384C12.0626 18.9991 16.8877 14.4755 24.7284 14.4755C31.0009 14.4755 35.4641 16.7674 38.9019 19.9641L39.6257 19.8435Z" fill="white"/>
<path d="M75.5991 47.2866C74.2722 46.4422 73.6088 44.1502 73.6088 40.2298V28.8303C73.6088 18.6975 66.5522 13.812 57.3243 13.812C49.2423 13.812 44.9601 17.0087 44.9601 21.3513C44.9601 24.0655 47.252 25.7543 49.9661 25.7543C50.5692 24.0655 52.3786 22.3164 56.1783 22.3164C60.5812 22.3164 63.054 24.7893 63.054 28.8907V29.0716C61.0637 28.1066 58.7115 27.3828 56.0577 27.3828C48.0361 27.3828 43.211 31.6651 43.211 37.6966C43.211 43.4868 47.8551 48.8548 56.0577 48.8548C59.978 48.8548 62.7524 47.5882 64.7428 45.4771C66.2506 47.6485 68.5425 48.8548 71.1963 48.8548C73.3072 48.8548 74.9357 48.3119 75.6594 47.95L75.5991 47.2866ZM63.054 35.5252C62.8731 39.0235 60.2796 40.7726 57.264 40.7726C54.6705 40.7726 52.9817 39.4457 52.9817 37.4553C52.9817 35.5253 54.7911 34.138 57.264 34.138C59.7971 34.138 61.4256 34.7412 63.054 35.5252Z" fill="white"/>
<path d="M91.9656 48.0104V47.3469C90.3372 46.2612 89.8547 44.4518 89.8547 40.8329L89.915 0.844403C86.3565 3.19667 81.4109 5.79019 77.1889 5.79019V6.45366C78.4555 7.35837 79.2999 8.98687 79.2999 12.6057V40.8329C79.2999 44.4518 78.4555 46.4422 77.1889 47.3469V48.0104H91.9656Z" fill="white"/>
<path d="M115.618 48.0707L126.173 22.0148C127.62 18.3959 128.826 16.5865 129.671 15.5008V14.8374H116.1V15.5008C117.427 16.5865 117.487 18.3959 116.221 22.0148L111.577 35.0427L106.933 22.0148C105.606 18.3959 105.726 16.5865 107.053 15.5008V14.8374H91.9751V15.5008C93.2416 16.5865 94.3273 18.3959 95.7748 22.0148L106.33 48.0104H115.557L115.618 48.0707Z" fill="white"/>
<path d="M144.807 6.15208C144.807 2.71415 141.972 0 138.595 0C135.217 0 132.443 2.71415 132.443 6.15208C132.443 9.59001 135.217 12.3042 138.595 12.3042C141.972 12.3042 144.807 9.59001 144.807 6.15208ZM146.254 48.0104V47.4072C144.626 46.3215 144.144 44.4518 144.144 40.8329V14.8374H131.478V15.4405C132.744 16.3452 133.589 18.3959 133.589 22.0148V40.8329C133.589 44.4518 132.865 46.4422 131.478 47.4072V48.0104H146.254Z" fill="white"/>
<path d="M183.779 48.0104V47.3469C182.15 46.2612 181.668 44.4518 181.668 40.8329C181.668 39.8679 181.728 33.7761 181.728 28.5288C181.728 19.9641 177.144 13.993 168.761 13.993C164.78 13.993 161.644 15.7421 159.412 18.3356C158.085 15.5611 155.673 13.993 152.476 13.993C150.727 13.993 149.038 14.5358 148.073 14.8374V15.5008C149.34 16.4055 150.184 18.3959 150.184 22.0148V40.8329C150.184 44.4518 149.46 46.3819 148.073 47.3469V48.0104H162.85V47.3469C161.222 46.2612 160.739 44.4518 160.739 40.8329V29.5541C160.739 25.8146 163.212 23.6433 165.926 23.6433C168.821 23.6433 171.113 25.694 171.113 29.3129V40.8329C171.113 44.4518 170.268 46.4422 169.002 47.3469V48.0104H183.779Z" fill="white"/>
<path d="M192.521 49.3976C196.622 49.3976 200 46.0803 200 41.9186C200 37.7569 196.622 34.4396 192.521 34.4396C188.36 34.4396 184.982 37.7569 184.982 41.9186C184.982 46.0803 188.36 49.3976 192.521 49.3976Z" fill="white"/>
</svg>
